# xmcd CD database file
#
# Track frame offsets:
#	150
#	9033
#	18790
#	27188
#	40938
#	53495
#	65265
#	75658
#	88155
#	99103
#
# Disc length: 1497 seconds
#
# Revision: 3
# Processed by: cddbd v1.5.1PL0 Copyright (c) Steve Scherf et al.
# Submitted via: CDex 1.51
#
DISCID=5d05d70a
DTITLE=日本コロムビア - ゴールデン・ヒットパレード／ウルトラマン 2001　disc2
DYEAR=2001
DGENRE=Pop
TTITLE0=ウルトラマンのうた
TTITLE1=ウルトラセブンのうた
TTITLE2=ULTRA SEVEN
TTITLE3=帰ってきたウルトラマン
TTITLE4=ウルトラマンA
TTITLE5=ウルトラマンタロウ
TTITLE6=ウルトラ六兄弟
TTITLE7=ウルトラマンレオ
TTITLE8=戦え！ウルトラマンレオ
TTITLE9=ウルトラマン80
EXTD=YEAR: 2001
EXTT0=
EXTT1=
EXTT2=
EXTT3=
EXTT4=
EXTT5=
EXTT6=
EXTT7=
EXTT8=
EXTT9=
PLAYORDER=
